<svg width="295" height="50" viewBox="0 0 295 50" fill="none" xmlns="http://www.w3.org/2000/svg">
<rect width="50" height="50" rx="25" fill="white" fill-opacity="0.08"/>
<path d="M15.76 29.106L19.792 25.038L15.76 20.988H18.658L22.69 25.038L18.658 29.106H15.76ZM24.9745 31.626C24.5545 31.626 24.2065 31.494 23.9305 31.23C23.6665 30.966 23.5345 30.648 23.5345 30.276C23.5345 29.892 23.6665 29.568 23.9305 29.304C24.2065 29.04 24.5545 28.908 24.9745 28.908C25.3945 28.908 25.7365 29.04 26.0005 29.304C26.2765 29.568 26.4145 29.892 26.4145 30.276C26.4145 30.648 26.2765 30.966 26.0005 31.23C25.7365 31.494 25.3945 31.626 24.9745 31.626ZM31.2684 29.106L27.2544 25.038L31.2684 20.988H34.1844L30.1344 25.038L34.1844 29.106H31.2684Z" fill="white"/>
<path d="M71.282 31.716C70.298 31.716 69.392 31.488 68.564 31.032C67.736 30.576 67.07 29.904 66.566 29.016C66.074 28.116 65.828 27.012 65.828 25.704C65.828 24.408 66.08 23.304 66.584 22.392C67.1 21.468 67.778 20.766 68.618 20.286C69.47 19.794 70.388 19.548 71.372 19.548C72.128 19.548 72.806 19.704 73.406 20.016C74.006 20.316 74.504 20.67 74.9 21.078L73.496 22.77C73.196 22.494 72.878 22.272 72.542 22.104C72.218 21.924 71.846 21.834 71.426 21.834C70.898 21.834 70.412 21.984 69.968 22.284C69.536 22.584 69.188 23.016 68.924 23.58C68.672 24.144 68.546 24.822 68.546 25.614C68.546 26.814 68.804 27.75 69.32 28.422C69.836 29.094 70.526 29.43 71.39 29.43C71.87 29.43 72.296 29.322 72.668 29.106C73.052 28.89 73.388 28.632 73.676 28.332L75.08 29.988C74.096 31.14 72.83 31.716 71.282 31.716ZM82.7646 31.716C81.7086 31.716 80.7786 31.47 79.9746 30.978C79.1826 30.486 78.5586 29.784 78.1026 28.872C77.6586 27.948 77.4366 26.85 77.4366 25.578C77.4366 24.294 77.6586 23.208 78.1026 22.32C78.5586 21.42 79.1826 20.736 79.9746 20.268C80.7786 19.788 81.7086 19.548 82.7646 19.548C83.8206 19.548 84.7446 19.788 85.5366 20.268C86.3406 20.736 86.9646 21.42 87.4086 22.32C87.8646 23.22 88.0926 24.306 88.0926 25.578C88.0926 26.85 87.8646 27.948 87.4086 28.872C86.9646 29.784 86.3406 30.486 85.5366 30.978C84.7446 31.47 83.8206 31.716 82.7646 31.716ZM82.7646 29.43C83.5686 29.43 84.2046 29.082 84.6726 28.386C85.1406 27.69 85.3746 26.754 85.3746 25.578C85.3746 24.402 85.1406 23.484 84.6726 22.824C84.2046 22.164 83.5686 21.834 82.7646 21.834C81.9606 21.834 81.3246 22.164 80.8566 22.824C80.3886 23.484 80.1546 24.402 80.1546 25.578C80.1546 26.754 80.3886 27.69 80.8566 28.386C81.3246 29.082 81.9606 29.43 82.7646 29.43ZM92.0993 31.5V19.764H94.7453V29.268H99.3893V31.5H92.0993ZM103.216 31.5V19.764H105.862V29.268H110.506V31.5H103.216ZM116.981 25.56L116.693 26.64H119.195L118.925 25.56C118.769 24.972 118.607 24.348 118.439 23.688C118.283 23.028 118.127 22.392 117.971 21.78H117.899C117.755 22.404 117.605 23.046 117.449 23.706C117.305 24.354 117.149 24.972 116.981 25.56ZM112.733 31.5L116.405 19.764H119.591L123.263 31.5H120.455L119.735 28.71H116.153L115.433 31.5H112.733ZM126.345 31.5V19.764H130.359C131.175 19.764 131.907 19.854 132.555 20.034C133.203 20.202 133.719 20.496 134.103 20.916C134.487 21.336 134.679 21.924 134.679 22.68C134.679 23.196 134.541 23.706 134.265 24.21C134.001 24.702 133.629 25.038 133.149 25.218V25.29C133.749 25.446 134.247 25.752 134.643 26.208C135.051 26.652 135.255 27.264 135.255 28.044C135.255 28.848 135.051 29.502 134.643 30.006C134.235 30.51 133.689 30.888 133.005 31.14C132.321 31.38 131.553 31.5 130.701 31.5H126.345ZM128.991 24.462H130.233C130.881 24.462 131.349 24.336 131.637 24.084C131.937 23.832 132.087 23.496 132.087 23.076C132.087 22.62 131.937 22.296 131.637 22.104C131.337 21.912 130.875 21.816 130.251 21.816H128.991V24.462ZM128.991 29.448H130.485C131.937 29.448 132.663 28.92 132.663 27.864C132.663 27.348 132.483 26.982 132.123 26.766C131.763 26.538 131.217 26.424 130.485 26.424H128.991V29.448ZM138.431 27.882V26.01H142.859V27.882H138.431ZM146.82 31.5V19.764H149.466V24.282H153.516V19.764H156.18V31.5H153.516V26.604H149.466V31.5H146.82ZM165.375 31.716C163.851 31.716 162.687 31.266 161.883 30.366C161.079 29.466 160.677 28.032 160.677 26.064V19.764H163.341V26.334C163.341 27.486 163.515 28.29 163.863 28.746C164.211 29.202 164.715 29.43 165.375 29.43C166.035 29.43 166.545 29.202 166.905 28.746C167.265 28.29 167.445 27.486 167.445 26.334V19.764H170.001V26.064C170.001 28.032 169.605 29.466 168.813 30.366C168.033 31.266 166.887 31.716 165.375 31.716ZM174.52 31.5V19.764H178.534C179.35 19.764 180.082 19.854 180.73 20.034C181.378 20.202 181.894 20.496 182.278 20.916C182.662 21.336 182.854 21.924 182.854 22.68C182.854 23.196 182.716 23.706 182.44 24.21C182.176 24.702 181.804 25.038 181.324 25.218V25.29C181.924 25.446 182.422 25.752 182.818 26.208C183.226 26.652 183.43 27.264 183.43 28.044C183.43 28.848 183.226 29.502 182.818 30.006C182.41 30.51 181.864 30.888 181.18 31.14C180.496 31.38 179.728 31.5 178.876 31.5H174.52ZM177.166 24.462H178.408C179.056 24.462 179.524 24.336 179.812 24.084C180.112 23.832 180.262 23.496 180.262 23.076C180.262 22.62 180.112 22.296 179.812 22.104C179.512 21.912 179.05 21.816 178.426 21.816H177.166V24.462ZM177.166 29.448H178.66C180.112 29.448 180.838 28.92 180.838 27.864C180.838 27.348 180.658 26.982 180.298 26.766C179.938 26.538 179.392 26.424 178.66 26.424H177.166V29.448Z" fill="white"/>
</svg>
